HIERARCHY
ROOT joint_Root
{
	OFFSET 0.0 0.0 0.0
	CHANNELS 6 Xposition Yposition Zposition Zrotation Xrotation Yrotation 
	JOINT Hips
	{
		OFFSET 4.5925 91.4895 -427.239
		CHANNELS 6 Xposition Yposition Zposition Zrotation Xrotation Yrotation 
		JOINT Spine
		{
			OFFSET 15.7357 0.0 0.0
			CHANNELS 6 Xposition Yposition Zposition Zrotation Xrotation Yrotation 
			JOINT Chest
			{
				OFFSET 8.98455 -0.406207 0.0
				CHANNELS 6 Xposition Yposition Zposition Zrotation Xrotation Yrotation 
				JOINT Neck
				{
					OFFSET 16.3773 0.0 0.0
					CHANNELS 6 Xposition Yposition Zposition Zrotation Xrotation Yrotation 
					JOINT Head
					{
						OFFSET 6.45672 0.0 0.0
						CHANNELS 6 Xposition Yposition Zposition Zrotation Xrotation Yrotation 
						End Site
						{
							OFFSET 0.0 0.0 0.0
						}
					}
				}
				JOINT Shoulder_L
				{
					OFFSET 12.9942 -0.242716 4.98039
					CHANNELS 6 Xposition Yposition Zposition Zrotation Xrotation Yrotation 
					JOINT UpperArm_L
					{
						OFFSET 5.34809 0.0 0.0
						CHANNELS 6 Xposition Yposition Zposition Zrotation Xrotation Yrotation 
						JOINT LowerArm_L
						{
							OFFSET 24.3286 1.87007e-05 0.0
							CHANNELS 6 Xposition Yposition Zposition Zrotation Xrotation Yrotation 
							JOINT Hand_L
							{
								OFFSET 22.2916 0.0 0.0
								CHANNELS 6 Xposition Yposition Zposition Zrotation Xrotation Yrotation 
								End Site
								{
									OFFSET 0.0 0.0 0.0
								}
							}
						}
					}
				}
				JOINT Shoulder_R
				{
					OFFSET 12.9945 -0.242716 -4.98039
					CHANNELS 6 Xposition Yposition Zposition Zrotation Xrotation Yrotation 
					JOINT UpperArm_R
					{
						OFFSET -5.34813 0.0 0.0
						CHANNELS 6 Xposition Yposition Zposition Zrotation Xrotation Yrotation 
						JOINT LowerArm_R
						{
							OFFSET -24.3289 0.000322201 0.0
							CHANNELS 6 Xposition Yposition Zposition Zrotation Xrotation Yrotation 
							JOINT Hand_R
							{
								OFFSET -22.2915 -0.000108084 0.0
								CHANNELS 6 Xposition Yposition Zposition Zrotation Xrotation Yrotation 
								End Site
								{
									OFFSET 0.0 0.0 0.0
								}
							}
						}
					}
				}
			}
		}
		JOINT UpperLeg_L
		{
			OFFSET -2.19248 -6.46944 0.0
			CHANNELS 6 Xposition Yposition Zposition Zrotation Xrotation Yrotation 
			JOINT LowerLeg_L
			{
				OFFSET 39.0811 0.0 -1.23785e-05
				CHANNELS 6 Xposition Yposition Zposition Zrotation Xrotation Yrotation 
				JOINT Foot_L
				{
					OFFSET 40.9854 0.0 -1.26872e-05
					CHANNELS 6 Xposition Yposition Zposition Zrotation Xrotation Yrotation 
					JOINT Toes_L
					{
						OFFSET 11.7543 0.0 0.0
						CHANNELS 6 Xposition Yposition Zposition Zrotation Xrotation Yrotation 
						End Site
						{
							OFFSET 0.0 0.0 0.0
						}
					}
				}
			}
		}
		JOINT UpperLeg_R
		{
			OFFSET -2.19251 6.46944 0.0
			CHANNELS 6 Xposition Yposition Zposition Zrotation Xrotation Yrotation 
			JOINT LowerLeg_R
			{
				OFFSET -39.0811 -0.00228153 -0.0401928
				CHANNELS 6 Xposition Yposition Zposition Zrotation Xrotation Yrotation 
				JOINT Foot_R
				{
					OFFSET -40.9854 0.0 0.0
					CHANNELS 6 Xposition Yposition Zposition Zrotation Xrotation Yrotation 
					JOINT Toes_R
					{
						OFFSET -11.7543 0.0 0.0
						CHANNELS 6 Xposition Yposition Zposition Zrotation Xrotation Yrotation 
						End Site
						{
							OFFSET 0.0 0.0 0.0
						}
					}
				}
			}
		}
	}
}
MOTION
Frames:	4
Frame Time:	0.0333333
0.000000 0.000000 0.000000 0.000000 0.000000 -0.000000 -1.663430 88.817500 -45.310800 88.332400 -2.279300 0.015320 15.735700 0.000005 -0.000001 106.342000 83.778900 -106.195000 8.984550 -0.406207 -0.000000 4.175450 3.490770 0.165048 16.377300 -0.000001 -0.000001 -2.162150 -4.622980 2.463370 6.456720 -0.000001 -0.000000 -4.574800 -5.958690 1.551490 12.994200 -0.242716 4.980390 -90.364500 1.268770 -73.966900 5.348090 -0.000007 -0.000001 -71.143200 20.615100 9.975890 24.328600 0.000019 0.000005 -3.296690 -1.054180 -72.284400 22.291600 -0.000001 0.000005 14.485700 5.485750 -5.970330 12.994500 -0.242716 -4.980390 89.039200 7.953940 -83.090000 -5.348130 -0.000001 -0.000004 -56.398900 22.465000 -18.126100 -24.328900 0.000322 -0.000009 -22.580200 -3.217850 -82.310300 -22.291500 -0.000108 -0.000004 25.944800 5.653400 -15.351800 -2.192480 -6.469440 -0.000000 178.363000 -7.089830 -28.652400 39.081100 -0.000007 -0.000012 -0.067191 0.086456 37.854200 40.985400 -0.000006 -0.000013 3.577320 -3.714760 -59.878000 11.754300 -0.000000 0.000003 -0.002946 -0.039996 -18.203300 -2.192510 6.469440 -0.000001 175.831000 13.254300 171.501000 -39.081100 -0.002282 -0.040193 0.206839 -0.122969 58.873200 -40.985400 0.000008 0.000006 5.099410 3.553830 -49.835300 -11.754300 -0.000006 -0.000006 -0.069505 -0.361498 -31.539600
0.000000 0.000000 0.000000 0.000000 0.000000 -0.000000 -1.451130 87.325300 -40.324700 88.504400 -1.504660 0.993862 15.735700 0.000005 -0.000001 98.763800 83.550100 -98.799700 8.984550 -0.406207 -0.000000 4.986120 1.962360 -0.157236 16.377300 -0.000001 -0.000001 -2.272330 -4.410660 2.376820 6.456720 -0.000001 -0.000000 -4.409770 -5.154530 2.142150 12.994200 -0.242716 4.980390 -90.678400 2.442860 -74.474000 5.348090 -0.000007 -0.000001 -68.087700 19.251800 4.004250 24.328600 0.000019 0.000005 -4.219560 -1.191900 -74.253200 22.291600 -0.000001 0.000005 15.294200 5.481800 -5.818500 12.994500 -0.242716 -4.980390 88.897000 9.137380 -83.087100 -5.348130 -0.000001 -0.000004 -56.772300 24.976400 -14.464900 -24.328900 0.000322 -0.000009 -20.430300 -3.861760 -79.749500 -22.291500 -0.000108 -0.000004 26.064500 5.658500 -15.878000 -2.192480 -6.469440 -0.000000 178.580000 -5.313940 -28.365800 39.081100 -0.000007 -0.000012 -0.258031 0.247763 46.163600 40.985400 -0.000006 -0.000013 2.649240 -4.801540 -67.389100 11.754300 -0.000000 0.000003 -0.000015 -0.000200 -16.585400 -2.192510 6.469440 -0.000001 175.884000 11.631400 166.526000 -39.081100 -0.002282 -0.040193 0.247552 -0.090865 69.608100 -40.985400 0.000008 0.000006 4.198500 -0.349811 -44.048300 -11.754300 -0.000006 -0.000006 -0.013951 -0.131104 -21.920600
0.000000 0.000000 0.000000 0.000000 0.000000 -0.000000 -1.155160 86.138700 -35.771300 89.089000 -1.031330 1.194430 15.735700 0.000005 -0.000001 93.413400 83.266200 -93.781100 8.984550 -0.406207 -0.000000 5.680760 0.806579 -0.774551 16.377300 -0.000001 -0.000001 -2.660590 -4.164810 2.192090 6.456720 -0.000001 -0.000000 -4.792100 -4.598830 2.492230 12.994200 -0.242716 4.980390 -90.891800 3.351210 -75.088900 5.348090 -0.000007 -0.000001 -64.642500 18.407600 -4.390310 24.328600 0.000019 0.000005 -4.302180 -1.155620 -74.992800 22.291600 -0.000001 0.000005 16.646000 5.481620 -5.811500 12.994500 -0.242716 -4.980390 88.769100 10.128100 -83.033600 -5.348130 -0.000001 -0.000004 -58.683100 25.954200 -9.884040 -24.328900 0.000322 -0.000009 -20.070100 -4.677680 -77.416500 -22.291500 -0.000108 -0.000004 27.260300 5.663570 -16.483200 -2.192480 -6.469440 -0.000000 177.917000 -6.714990 -27.236700 39.081100 -0.000007 -0.000012 -0.379927 0.306928 51.067600 40.985400 -0.000006 -0.000013 3.014850 -3.500250 -73.308100 11.754300 -0.000000 0.000003 -0.000170 -0.001618 -16.638800 -2.192510 6.469440 -0.000001 176.222000 10.608100 160.808000 -39.081100 -0.002282 -0.040193 0.186244 -0.038395 78.169800 -40.985400 0.000008 0.000006 6.763300 -3.137910 -49.308500 -11.754300 -0.000006 -0.000006 -0.014982 -0.137701 -22.191300
0.000000 0.000000 0.000000 0.000000 0.000000 -0.000000 -0.949150 85.530200 -31.437000 89.035700 -0.674219 0.972840 15.735700 0.000005 -0.000001 89.315900 83.149900 -89.724900 8.984550 -0.406207 -0.000000 5.932780 -0.156602 -0.808865 16.377300 -0.000001 -0.000001 -2.772550 -4.002050 2.015370 6.456720 -0.000001 -0.000000 -4.937790 -3.985270 2.507630 12.994200 -0.242716 4.980390 -91.006800 4.013490 -75.905300 5.348090 -0.000007 -0.000001 -61.907600 17.233700 -12.698700 24.328600 0.000019 0.000005 -4.189200 -1.103590 -75.267400 22.291600 -0.000001 0.000005 17.242400 5.483330 -5.876450 12.994500 -0.242716 -4.980390 88.599700 10.580800 -82.417000 -5.348130 -0.000001 -0.000004 -61.645100 26.043700 -4.604100 -24.328900 0.000322 -0.000009 -20.383300 -5.462560 -75.628800 -22.291500 -0.000108 -0.000004 27.721200 5.662360 -16.336700 -2.192480 -6.469440 -0.000000 178.112000 -7.631730 -25.102600 39.081100 -0.000007 -0.000012 -0.426967 0.319972 53.152900 40.985400 -0.000006 -0.000013 3.178040 -2.645510 -77.776300 11.754300 -0.000000 0.000003 -0.000368 -0.003084 -16.691600 -2.192510 6.469440 -0.000001 177.333000 9.980590 154.832000 -39.081100 -0.002282 -0.040193 0.138283 -0.019748 81.709100 -40.985400 0.000008 0.000006 6.478510 -3.714280 -52.225600 -11.754300 -0.000006 -0.000006 -0.015017 -0.137924 -22.200400
